HIERARCHY
ROOT Hips
{
	OFFSET 0.000000 0.000000 0.000000
	CHANNELS 6 Xposition Yposition Zposition Zrotation Yrotation Xrotation 
	JOINT LHipJoint
	{
		OFFSET 0.000000 0.000000 0.000000
		CHANNELS 3 Zrotation Yrotation Xrotation
		JOINT LeftUpLeg
		{
			OFFSET 1.363060 -1.794630 0.839290
			CHANNELS 3 Zrotation Yrotation Xrotation
			JOINT LeftLeg
			{
				OFFSET 2.448110 -6.726130 0.000000
				CHANNELS 3 Zrotation Yrotation Xrotation
				JOINT LeftFoot
				{
					OFFSET 2.562200 -7.039590 0.000000
					CHANNELS 3 Zrotation Yrotation Xrotation
					JOINT LeftToeBase
					{
						OFFSET 0.157640 -0.433110 2.322550
						CHANNELS 3 Zrotation Yrotation Xrotation
						End Site
						{
							OFFSET 0.000000 0.000000 0.000000
						}
					}
				}
			}
		}
	}
	JOINT RHipJoint
	{
		OFFSET 0.000000 0.000000 0.000000
		CHANNELS 3 Zrotation Yrotation Xrotation
		JOINT RightUpLeg
		{
			OFFSET -1.305520 -1.794630 0.839290
			CHANNELS 3 Zrotation Yrotation Xrotation
			JOINT RightLeg
			{
				OFFSET -2.542530 -6.985550 0.000000
				CHANNELS 3 Zrotation Yrotation Xrotation
				JOINT RightFoot
				{
					OFFSET -2.568260 -7.056230 0.000000
					CHANNELS 3 Zrotation Yrotation Xrotation
					JOINT RightToeBase
					{
						OFFSET -0.164730 -0.452590 2.363150
						CHANNELS 3 Zrotation Yrotation Xrotation
						End Site
						{
							OFFSET 0.000000 0.000000 0.000000
						}
					}
				}
			}
		}
	}
	JOINT LowerBack
	{
		OFFSET 0.000000 0.000000 0.000000
		CHANNELS 3 Zrotation Yrotation Xrotation
		JOINT Spine
		{
			OFFSET 0.028270 2.035590 -0.193380
			CHANNELS 3 Zrotation Yrotation Xrotation
			JOINT Spine1
			{
				OFFSET 0.056720 2.048850 -0.042750
				CHANNELS 3 Zrotation Yrotation Xrotation
				JOINT Neck
				{
					OFFSET 0.000000 0.000000 0.000000
					CHANNELS 3 Zrotation Yrotation Xrotation
					JOINT Neck1
					{
						OFFSET -0.054170 1.746240 0.172020
						CHANNELS 3 Zrotation Yrotation Xrotation
						JOINT Head
						{
							OFFSET 0.104070 1.761360 -0.123970
							CHANNELS 3 Zrotation Yrotation Xrotation
							End Site
							{
								OFFSET 0.000000 0.000000 0.000000
							}
						}
					}
				}
				JOINT LeftShoulder
				{
					OFFSET 0.000000 0.000000 0.000000
					CHANNELS 3 Zrotation Yrotation Xrotation
					JOINT LeftArm
					{
						OFFSET 3.362410 1.200890 -0.311210
						CHANNELS 3 Zrotation Yrotation Xrotation
						JOINT LeftForeArm
						{
							OFFSET 4.983000 -0.000000 -0.000000
							CHANNELS 3 Zrotation Yrotation Xrotation
							JOINT LeftHand
							{
								OFFSET 3.483560 -0.000000 -0.000000
								CHANNELS 3 Zrotation Yrotation Xrotation
								JOINT LeftFingerBase
								{
									OFFSET 0.000000 0.000000 0.000000
									CHANNELS 3 Zrotation Yrotation Xrotation
									JOINT LeftHandIndex1
									{
										OFFSET 0.715260 -0.000000 -0.000000
										CHANNELS 3 Zrotation Yrotation Xrotation
										End Site
										{
											OFFSET 0.000000 0.000000 0.000000
										}
									}
								}
								JOINT LThumb
								{
									OFFSET 0.000000 0.000000 0.000000
									CHANNELS 3 Zrotation Yrotation Xrotation
									End Site
									{
										OFFSET 0.000000 0.000000 0.000000
									}
								}
							}
						}
					}
				}
				JOINT RightShoulder
				{
					OFFSET 0.000000 0.000000 0.000000
					CHANNELS 3 Zrotation Yrotation Xrotation
					JOINT RightArm
					{
						OFFSET -3.136600 1.374050 -0.404650
						CHANNELS 3 Zrotation Yrotation Xrotation
						JOINT RightForeArm
						{
							OFFSET -5.241900 -0.000000 -0.000000
							CHANNELS 3 Zrotation Yrotation Xrotation
							JOINT RightHand
							{
								OFFSET -3.444170 -0.000000 -0.000000
								CHANNELS 3 Zrotation Yrotation Xrotation
								JOINT RightFingerBase
								{
									OFFSET 0.000000 0.000000 0.000000
									CHANNELS 3 Zrotation Yrotation Xrotation
									JOINT RightHandIndex1
									{
										OFFSET -0.622530 -0.000000 -0.000000
										CHANNELS 3 Zrotation Yrotation Xrotation
										End Site
										{
											OFFSET 0.000000 0.000000 0.000000
										}
									}
								}
								JOINT RThumb
								{
									OFFSET 0.000000 0.000000 0.000000
									CHANNELS 3 Zrotation Yrotation Xrotation
									End Site
									{
										OFFSET 0.000000 0.000000 0.000000
									}
								}
							}
						}
					}
				}
			}
		}
	}
}
MOTION
Frames: 10
Frame Time: 0.008333
10.660695 17.925875 19.470325 2.618407 4.281284 6.506427 -1.942509 1.816982 4.518346 -17.114888 0.959456 6.841291 0.495456 8.695653 26.341935 -0.033154 13.073380 34.237582 0.752082 5.516421 15.393380 -0.934347 2.779064 -4.831653 12.850096 6.430896 -35.186452 0.846557 -13.933124 31.735394 -2.171497 0.370960 19.757223 -0.008260 -0.383728 1.054513 -0.991680 -0.957143 3.964823 1.443227 -0.922963 -3.662628 1.476255 -1.201533 -1.477222 -4.043246 -1.531602 -10.289101 4.549532 -1.927545 10.338789 0.553750 -0.823920 5.366571 3.219277 -10.143845 0.769563 -79.826985 -16.414116 36.848664 40.350210 -41.519307 -19.918535 -0.176115 0.388826 -25.564891 29.243747 -14.344429 -8.155559 -7.125000 0.000000 0.000000 1.127351 13.097131 -0.842838 -3.287124 8.926637 1.300050 89.671657 -19.784574 -42.488297 -3.042772 7.815911 -1.701887 2.357132 -0.320154 43.687298 -20.222318 -34.879144 13.408024 7.125000 0.000000 0.000000 15.691915 -67.329822 -8.514683
10.662828 17.920018 19.594449 2.663381 4.065201 6.367740 -1.873983 1.725773 4.369196 -17.317077 1.026347 6.357458 0.956467 9.291001 27.992119 -0.181541 13.914506 34.280197 0.638817 5.107076 14.215540 -0.966934 2.762388 -4.768029 12.959156 6.501440 -35.078857 0.683973 -14.117842 32.415622 -2.277256 0.925950 19.485144 -0.008698 -0.485374 1.333832 -0.954604 -0.886727 4.086023 1.430879 -0.829690 -3.633928 1.424824 -1.142729 -1.424435 -4.060486 -1.519680 -10.279420 4.550959 -1.911856 10.262117 0.562936 -0.818091 5.314619 3.211621 -10.127524 0.770780 -79.987239 -16.146057 36.786517 40.286094 -41.519934 -19.885105 -0.197746 0.388940 -25.886301 29.521459 -14.405818 -8.291803 -7.125000 0.000000 0.000000 1.316873 12.971544 -0.988513 -3.277125 8.934842 1.308968 89.488312 -19.348135 -42.992863 -3.049635 7.710984 -1.687902 2.338662 -0.358940 44.434579 -19.965485 -34.583933 13.145927 7.125000 0.000000 0.000000 15.706257 -66.964907 -8.397355
10.666063 17.917193 19.721515 2.786000 3.798601 6.243278 -1.795399 1.627094 4.204851 -17.640630 1.099752 5.906135 1.430921 9.855451 29.591487 -0.438165 14.938049 33.932539 0.567762 4.815193 13.384267 -0.997638 2.747137 -4.709596 12.990060 6.601861 -34.937208 0.518582 -14.288355 33.047957 -2.349720 1.383307 19.037016 -0.004731 -0.067891 0.186687 -1.012212 -0.800270 4.121475 1.408244 -0.717696 -3.589785 1.379709 -1.073263 -1.305849 -4.117473 -1.450147 -10.143259 4.629606 -1.831480 10.112414 0.630161 -0.778185 5.171231 3.190184 -10.103347 0.787158 -80.089425 -15.897816 36.780996 40.183417 -41.505161 -19.823363 -0.215335 0.391014 -26.317313 29.746528 -14.612229 -8.488504 -7.125000 0.000000 0.000000 1.451321 12.689741 -1.098288 -3.270128 8.927085 1.328457 89.300690 -18.850301 -43.650716 -3.035124 7.553989 -1.661837 2.310747 -0.417708 45.358871 -19.876188 -34.078652 12.926011 7.125000 0.000000 0.000000 15.285262 -66.435778 -7.985025
10.669169 17.916102 19.847702 2.860766 3.565262 6.112223 -1.717933 1.535914 4.042229 -17.904641 1.137674 5.455761 1.912112 10.410577 31.181387 -0.732626 16.030348 33.479783 0.508957 4.572640 12.693669 -1.021236 2.726967 -4.644757 13.061415 6.696806 -34.772275 0.358520 -14.447632 33.659905 -2.417544 1.824380 18.573083 -0.001465 0.245342 -0.674026 -1.020956 -0.723441 4.174460 1.392126 -0.616717 -3.548201 1.330936 -1.010098 -1.198535 -4.145645 -1.381832 -10.030736 4.697528 -1.753842 9.981757 0.683595 -0.738732 5.047293 3.172912 -10.081518 0.800843 -80.197378 -15.663630 36.772811 40.046156 -41.467029 -19.731178 -0.233248 0.392426 -26.728732 29.926776 -14.770569 -8.644056 -7.125000 0.000000 0.000000 1.561586 12.469864 -1.188008 -3.261251 8.923146 1.345195 89.127076 -18.379303 -44.019174 -3.028727 7.450214 -1.646126 2.292807 -0.460325 45.970628 -19.839171 -33.719632 12.787712 7.125000 0.000000 0.000000 14.947182 -66.066562 -7.673086
10.671788 17.921495 19.970607 2.756605 3.456291 5.956517 -1.644647 1.472776 3.886046 -17.946020 1.042920 5.008931 2.418498 10.930839 32.735888 -1.168562 17.379736 32.634052 0.495959 4.514537 12.529074 -1.018260 2.688403 -4.555969 13.284019 6.771278 -34.520281 0.218389 -14.564897 34.195622 -2.468019 2.204568 18.050051 -0.000827 0.168769 -0.463734 -0.846990 -0.682612 4.292997 1.400374 -0.556931 -3.516188 1.268490 -0.970495 -1.133365 -4.066072 -1.318072 -10.006602 4.725346 -1.686449 9.922315 0.685464 -0.700969 4.996077 3.171213 -10.068466 0.804456 -80.326898 -15.482000 36.754663 39.779577 -41.341557 -19.525157 -0.252373 0.391367 -27.066888 29.939436 -14.749167 -8.645744 -7.125000 0.000000 0.000000 1.581425 12.481539 -1.202739 -3.245346 8.933487 1.351642 89.005840 -18.008649 -43.305544 -3.052675 7.545438 -1.669133 2.312163 -0.442556 45.413782 -19.997631 -33.907499 12.954587 7.125000 0.000000 0.000000 14.919133 -66.295279 -7.736525
10.674361 17.926944 20.093580 2.649352 3.348236 5.800718 -1.571388 1.409914 3.730043 -17.983578 0.948117 4.561163 2.925189 11.450342 34.291284 -1.606141 18.727496 31.780388 0.484142 4.461550 12.378999 -1.014678 2.649580 -4.466666 13.509482 6.846185 -34.266029 0.079085 -14.680933 34.728679 -2.518647 2.584829 17.527324 -0.000320 0.086308 -0.237258 -0.670459 -0.641883 4.411307 1.409054 -0.497236 -3.484591 1.206532 -0.930949 -1.069395 -3.986008 -1.255944 -9.983945 4.751575 -1.620972 9.866015 0.686179 -0.664179 4.947332 3.169873 -10.055392 0.807607 -80.458743 -15.299009 36.736162 39.511169 -41.214968 -19.317554 -0.271501 0.390228 -27.401082 29.949815 -14.723360 -8.644235 -7.125000 0.000000 0.000000 1.600282 12.498645 -1.216550 -3.229313 8.944014 1.357817 88.885247 -17.642164 -42.577165 -3.077392 7.643958 -1.692694 2.331964 -0.423780 44.839917 -20.157477 -34.102222 13.124706 7.125000 0.000000 0.000000 14.896887 -66.531259 -7.805672
10.674412 17.935367 20.220234 2.376696 3.289194 5.640009 -1.499599 1.361807 3.583663 -17.816746 0.850747 4.063236 3.448158 11.929312 35.894552 -2.131641 19.988141 30.502335 0.535495 4.682287 13.005680 -0.978724 2.596884 -4.349797 13.887866 6.944353 -33.890978 -0.016001 -14.731189 35.119377 -2.577476 2.969019 17.020840 -0.006841 -0.311109 0.855022 -0.356650 -0.606539 4.517405 1.440890 -0.442474 -3.475276 1.170651 -0.894463 -1.069588 -3.879706 -1.281187 -10.040311 4.692816 -1.657974 9.977861 0.625112 -0.679366 5.030838 3.187804 -10.041139 0.786007 -80.714988 -15.043169 36.698822 39.144892 -41.028657 -19.025327 -0.290813 0.384839 -27.523312 29.838170 -14.461905 -8.471751 -7.125000 0.000000 0.000000 1.566625 12.806308 -1.181113 -3.206449 8.964457 1.349365 88.799056 -17.498759 -41.059776 -3.143277 7.918808 -1.745875 2.375581 -0.351202 43.355563 -20.391466 -34.663743 13.468398 7.125000 0.000000 0.000000 15.185030 -67.155797 -8.180194
10.674463 17.943790 20.346889 2.104040 3.230152 5.479300 -1.427811 1.313699 3.437283 -17.649914 0.753376 3.565309 3.971126 12.408282 37.497820 -2.657141 21.248786 29.224282 0.586849 4.903023 13.632362 -0.942769 2.544189 -4.232929 14.266250 7.042521 -33.515926 -0.111087 -14.781444 35.510076 -2.636305 3.353209 16.514356 -0.013363 -0.708526 1.947303 -0.042841 -0.571194 4.623504 1.472726 -0.387713 -3.465961 1.134769 -0.857977 -1.069782 -3.773404 -1.306430 -10.096678 4.634057 -1.694975 10.089707 0.564045 -0.694553 5.114344 3.205735 -10.026885 0.764408 -80.971232 -14.787330 36.661483 38.778615 -40.842345 -18.733101 -0.310124 0.379449 -27.645542 29.726524 -14.200450 -8.299266 -7.125000 0.000000 0.000000 1.532967 13.113971 -1.145677 -3.183584 8.984900 1.340912 88.712865 -17.355354 -39.542388 -3.209162 8.193657 -1.799057 2.419197 -0.278624 41.871210 -20.625454 -35.225264 13.812090 7.125000 0.000000 0.000000 15.473173 -67.780336 -8.554716
10.672055 17.953231 20.475197 1.917487 3.179152 5.320626 -1.351444 1.248128 3.286650 -17.596665 0.595078 3.054767 4.454266 12.850402 39.143066 -3.087095 21.943142 27.806909 0.634813 5.093709 14.176838 -0.897732 2.495961 -4.113757 14.587790 7.042882 -33.104758 -0.179563 -14.783140 35.764482 -2.678952 3.622488 16.009627 -0.014312 -0.773055 2.124595 0.151348 -0.533474 4.713885 1.494839 -0.335003 -3.459877 1.130317 -0.817595 -1.112439 -3.777374 -1.343006 -9.984693 4.636531 -1.747928 10.171805 0.564659 -0.719192 5.137712 3.207696 -10.012432 0.747523 -81.223106 -14.474229 36.711219 38.373376 -40.634139 -18.411504 -0.338055 0.371649 -27.763742 29.699668 -13.841059 -8.105543 -7.125000 0.000000 0.000000 1.571234 13.515738 -1.160400 -3.165642 9.002342 1.336928 88.603060 -17.182148 -38.398697 -3.231033 8.346695 -1.814901 2.429829 -0.252607 40.837148 -20.797326 -35.089136 13.884841 7.125000 0.000000 0.000000 15.077731 -67.692405 -8.304322
10.669127 17.962887 20.603853 1.749110 3.129850 5.162383 -1.274112 1.178871 3.135120 -17.567395 0.423917 2.541561 4.928997 13.284743 40.797174 -3.496878 22.517950 26.360123 0.682061 5.278051 14.703961 -0.850776 2.448677 -3.994099 14.897330 7.022594 -32.685965 -0.242420 -14.774585 35.990115 -2.718183 3.867508 15.505269 -0.014084 -0.767309 2.108724 0.320283 -0.495253 4.800949 1.514900 -0.282726 -3.454474 1.132500 -0.776392 -1.164060 -3.804625 -1.381975 -9.837167 4.651931 -1.804248 10.247624 0.578296 -0.745826 5.148384 3.206286 -9.997936 0.731632 -81.474056 -14.149040 36.779339 37.959912 -40.421311 -18.083707 -0.367806 0.363340 -27.881092 29.690712 -13.460994 -7.907336 -7.125000 0.000000 0.000000 1.624685 13.937372 -1.185711 -3.148741 9.019151 1.333886 88.488269 -17.002651 -37.333898 -3.243612 8.474016 -1.822862 2.433499 -0.236419 39.898147 -20.956085 -34.805727 13.900393 7.125000 0.000000 0.000000 14.537975 -67.454064 -7.922001
